<svg xmlns="http://www.w3.org/2000/svg" viewBox="0 0 731.7 138.92" style="enable-background:new 0 0 731.7 138.92" xml:space="preserve"><path d="M32.64 72.2v-.35h-3.19c-5.4 0-8.03 3.03-7.55 7.62h-2.52a16.08 16.08 0 0 1-2.02-7.75c0-10.23 6.99-13.33 15.28-14.69v-3.17c0-7.8 3.46-10.77 8.18-13.85l10.43-6.79H32.89c-10.65 0-10.64-12.98-8.24-22.08l2.83.1c.84 4.3 4.53 5.9 9.69 5.9h35.99c27.62 0 37.43 18.67 37.43 43.85 0 13.73-3.79 26.9-8.69 36.83l-32.96 18.13c-6.57-4.71-14.37-7.33-22.76-7.33-9.66 0-19.28 3.71-26.42 10.23H16c5.49-10.43 14.77-19.21 27.43-22.86 5.18-4.98 10.9-9.87 10.9-19.65l.01-23.73c0-8.39 1.54-14.86 5.77-19.38H56c-3.95 3.57-6.33 7.37-6.33 14.63l-.01 10.28v13.45c0 16.27-11.51 24.43-23.83 27.51l-1.23-3.16c7.32-4.19 8.04-12.75 8.04-23.74zm32.29-38.31c-5.36 3.84-6.89 9.87-6.89 18.71l-.01 23.73c0 8.37-3.7 13.74-7.97 18.27 2.14-.29 4.36-.44 6.66-.44 2.75 0 5.5.24 8.21.72V33.89zm3.78 25.99L90.44 48.9c-2.24-6.94-6.32-12.18-12.91-14.48-2.82-.98-5.83-1.18-8.82-1.2v26.66zm0 14.35 23.91-12.12c-.16-3.34-.54-6.53-1.18-9.48L68.71 64.12v10.11zm16.58 29.52c4.43-11.04 7.34-23.07 7.41-37.44L68.71 78.47v17.22c5.99 1.56 11.68 4.27 16.58 8.06z"/><path d="m153.88 101.11-19.68 14.24-14.48-11.38-4.42 3.16-1.9-2.53 8.22-5.69V64.16l-4.42-5.69-5.06 3.16-1.9-2.53 17.69-12.01 9.66 10.39 9.19-10.43h1.36a7.116 7.116 0 0 0 5.95 3.26c2.72 0 4.83-1.49 5.96-3.26h3.93c-1.55 16.35-9.19 18.42-13.11 18.42-2.88 0-7.52-1.32-11.78-5.43v38.88l5.2 4.1 7.12-4.86 2.47 2.95zM157.33 103.32l6.23-5.06V63.53l31.6-16.43 13.27 20.22v.63L180 85.65v5.69l15.8 10.74 14.54-11.38 1.9 3.16-27.17 22.12-19.56-14.53-5.83 4.73-2.35-2.86zm36.57-29.68-11.38-16.43-2.52 1.43v23.8l13.9-8.8z"/><path d="m269.86 58.76-4.89 3.98-.03 35.79 10.42 6.83 2.86-1.67V63.77l-5.84-5.3 13.81-11.44 8.28 7.26 5.66-4.59 2.33 2.87-7.78 6.31-.02 41.46-30.6 16.23-12.74-9.19-16.61 9.19-15.07-10.88-4.08 3.31-2.33-2.87 5.93-4.81V73.3c0-6.46-1.33-9.15-4.39-12.31-3.05-3.16-7.43-6.39-7.43-12.24 0-7.47 7.46-14.64 17.49-15.53l.65 2.51c-2.93.85-5.72 3.19-5.72 6.75 0 4.27 3.68 6.72 6.44 8.49 8.08 5.19 9.43 8.64 9.42 21.2l-.03 26.36 10.42 6.83 2.49-1.46V63.77l-5.84-5.3 13.81-11.44 13.39 11.73zM343.41 75.65c0 .1 0 .21.01.31h-3.03c-.55-1.52-.83-3.14-.83-4.76 0-8.55 7.15-14.38 14.76-14.38.23 0 .47.01.7.02V35.02c0-4.75-1.66-7.83-5-7.83-3.54 0-5.71 3.23-6.27 6.33h-3.16c.33-8.55 7.61-16.54 17.8-16.54 6.06 0 15.14 2.6 15.14 17.78v2.35l5.38-3.93V17.21h3.78v13.22l22.47-16.37c6.31 4.4 11.86 9.86 16.36 16.08v61.7l-34.61 18.65c-1.32-1.2-2.73-2.29-4.22-3.26v21.86h-27.67V103.04c-5.95 1.71-11.44 5.02-15.63 9.57h-3.03c2.99-5.38 9.26-13.01 18.66-17.98V70.02l-4.3-.01c-5.13-.02-7.31 1.93-7.31 5.64zm35.51-38.42-5.38 3.8v48.62c.59-.02 1.19-.04 1.79-.04 1.2 0 2.4.05 3.59.15V37.23zm-5.39 65.8v22.3h5.38v-20.24c-1.72-.83-3.52-1.52-5.38-2.06zm18.78-75.25-9.61 6.79v24.94l21.99-11.11v-9.42a76.202 76.202 0 0 0-12.38-11.2zm-9.61 45.56 21.99-11.11v-9.6L382.7 63.74v9.6zm0 16.9c6.87 1.15 13.47 3.88 19.09 7.99l2.9-1.71V66.47L382.7 77.58v12.66zM421.85 102.59l6.75-5.47v-33.9l29.7-17.06 18.96 14.54v36.02l-29.07 17.69-18.54-13.39-5.48 4.44-2.32-2.87zm38.98 1.71V66.39l-15.17-10.11V94.2l15.17 10.1zM539.36 58.46l-4.89 3.98-.03 35.79 10.42 6.83 2.86-1.67V63.46l-5.84-5.3 13.81-11.44 8.28 7.26 5.66-4.59 2.33 2.87-7.78 6.31-.02 41.46-30.6 16.23-12.74-9.2-16.61 9.2-15.07-10.88-4.08 3.31-2.33-2.87 5.93-4.81V72.99c0-6.46-1.33-9.15-4.39-12.31-3.05-3.16-7.43-6.39-7.43-12.24 0-7.47 7.46-14.64 17.49-15.53l.65 2.51c-2.93.85-5.72 3.19-5.72 6.75 0 4.27 3.68 6.72 6.44 8.49 8.08 5.19 9.43 8.64 9.42 21.2l-.03 26.36 10.42 6.83 2.49-1.46V63.46l-5.84-5.3 13.81-11.44 13.39 11.74zM568.38 103.01l6.23-5.06V63.23l31.6-16.43 13.27 20.22v.63l-28.44 17.7v5.69l15.8 10.74 14.54-11.38 1.9 3.16-27.17 22.12-19.56-14.53-5.83 4.73-2.34-2.87zm36.57-29.67-11.38-16.43-2.53 1.42v23.8l13.91-8.79z"/><path d="m662.22 100.81-19.68 14.24-14.48-11.38-4.42 3.16-1.9-2.53 8.21-5.69V63.86l-4.42-5.69-5.06 3.16-1.9-2.53 17.69-12.01 9.66 10.39 9.19-10.43h1.36a7.116 7.116 0 0 0 5.95 3.26c2.72 0 4.83-1.49 5.96-3.26h3.93c-1.55 16.35-9.19 18.42-13.11 18.42-2.88 0-7.52-1.32-11.78-5.43v38.88l5.21 4.1 7.12-4.86 2.47 2.95zM672.64 108.96c0-5.47 2.16-10.3 12.51-19.91l-9.99-7.88V62.71l27.25-15.82c1.91 2.82 5.17 5.76 9.62 5.76 3.46 0 6.26-2.37 6.6-5.5l.05.01v-.01h3.72c-1.03 10.07-4.07 17.57-11.5 24.42l11.36 8.41v19.91l-26.03 15.82c-1.78-3.15-5.09-6.17-9.76-6.17-3.09 0-6.22 1.77-6.22 4.99 0 1.57.82 2.68 1.88 3.27l-1.29 3.46c-4.54-1.76-8.2-6.11-8.2-12.3zm20.58-22.15c-4.68 4.02-9.37 7.92-12.59 11.94 2.5-1.98 5.72-3.15 9.24-3.15 7.55 0 12.96 4.78 15.4 10.13V88.56l-7.31-5.82-4.74 4.07zm14.11-16.99c1.9-1.63 3.87-3.55 5.64-6.06-2.01.88-4.26 1.35-6.62 1.35-5.71 0-11.48-2.99-14.18-9.7v17.17l5.45 5.57 9.71-8.33z"/></svg>