<svg enable-background="new 0 0 512 512" viewBox="0 0 512 512" xmlns="http://www.w3.org/2000/svg"><path d="m0 0h512v512h-512z" fill="#0b1610"/><path clip-rule="evenodd" d="m352.3 233.1c0 20-8 37.6-22.9 50.9-13.9 12.3-32.5 18.9-53.1 18.9h-72v58.4h-22.9v-201.3h90.1c49.6 0 80.8 28.8 80.8 73.1zm-25.6-.8c0-30.4-21.3-50.9-53.1-50.9h-68.5v37.3h67.7c23.2 0 42.1 18.9 42.1 42.1 0 1.9 0 3.7-.3 5.3 7.5-8.5 12.1-20.2 12.1-33.8zm-80.6 49h-41.1v-41.3h67.7c11.5 0 20.8 9.3 20.8 20.8s-9.3 20.8-20.8 20.8z" fill="#fff" fill-rule="evenodd"/></svg>