<svg enable-background="new 0 0 1189.7 154.6" viewBox="0 0 1189.7 154.6" xmlns="http://www.w3.org/2000/svg"><g fill="#fff" stroke="#231f20" stroke-miterlimit="10"><path d="m910.4 56.1h275v91.4h-275z"/><path d="m611.6 56.1h275v91.4h-275z"/><path d="m312.8 56.1h275v91.4h-275z"/><path d="m14 56.1h275v91.4h-275z"/><path d="m4 46.1h275v91.4h-275z"/></g><path d="m26.4 73.4c.8-1.2 2.2-2 3.7-2 3 0 4.7 1.9 4.7 5.2v6.8h-1.8v-7c0-2.2-1.1-3.4-3-3.4-2.4 0-3.6 1.8-3.6 4.6v5.8h-1.8v-11.7h1.7v1.7z"/><path d="m39.5 75.5v-.3c0-2 2-3.8 4.6-3.8s4.5 1.6 4.5 4.3v4.8c0 1.2.3 1.5 1.3 1.5h.8v1.4s-.7.2-1.4.2c-1.3 0-2-.8-2.2-1.8-.8 1.1-2.2 2-4 2-2.6 0-4.1-1.5-4.1-3.4 0-2.1 1.7-3.4 4.4-3.7l3.4-.4v-.5c0-1.7-1.1-2.6-2.7-2.6s-2.7.8-2.7 2.5h-1.9zm3.5 6.5c2.2 0 3.7-1.4 3.7-3.5v-1l-3.6.5c-1.6.2-2.4 1-2.4 2.1 0 1.2.7 1.9 2.3 1.9z"/><path d="m60.5 83.7c-2.2 0-4-1.4-4-4.4v-6h-3.5v-1.6h3.5v-3.3h1.8v3.3h6.1v1.6h-6.1v6c0 2.1 1.1 2.8 2.2 2.8 1.2 0 1.9-.8 2.1-1.8h1.7c-.1 1.7-1.4 3.4-3.8 3.4z"/><path d="m75.6 71.7v10.1h4.4v1.6h-10.8v-1.6h4.5v-8.5h-4.6v-1.6zm-1.1-6c1.1 0 2 .9 2 2s-.9 2-2 2-2-.9-2-2 .9-2 2-2z"/><path d="m90.5 83.4h-2.8l-4.5-11.8h2l3.7 9.8h.4l3.7-9.8h2z"/><path d="m100.4 78.1c.2 2.4 1.7 3.9 4 3.9 1.4 0 2.5-.6 3.4-1.7l1.2 1.1c-1.1 1.3-2.5 2.3-4.6 2.3-3.6 0-5.8-2.5-5.8-6.1 0-3.4 2-6.2 5.4-6.2 3.8 0 5.3 3.2 5.3 5.9v.8zm3.6-5c-2.1 0-3.2 1.5-3.5 3.5h6.9c-.1-2.1-1.4-3.5-3.4-3.5z"/><path d="m133.6 8.7h-4v-1.3c2.4-.1 3.7-.6 4.3-2.7h1.5v15.1h4.1v1.7h-10.2v-1.7h4.3z"/><path d="m149 16.8c1.4 0 2.5 1.1 2.5 2.5s-1.1 2.5-2.5 2.5-2.5-1.1-2.5-2.5 1.1-2.5 2.5-2.5z"/><path d="m427.8 9.6v-.2c0-2.9 2.2-4.9 5.3-4.9 3 0 5 2 5 4.8 0 2.2-1.4 4-3.6 5.2l-1.3.7c-2.4 1.2-3.6 2.8-3.6 4.7h8.7v1.7h-10.7v-.6c0-3.3 1.3-5.6 4.8-7.5l1.2-.6c1.6-.9 2.6-2 2.6-3.6 0-1.7-1.2-3-3.2-3s-3.5 1.2-3.5 3.4h-1.7z"/><path d="m447.8 16.8c1.4 0 2.5 1.1 2.5 2.5s-1.1 2.5-2.5 2.5-2.5-1.1-2.5-2.5 1.1-2.5 2.5-2.5z"/><path d="m734.3 12.8c1.6.6 2.9 2.1 2.9 4.1 0 3.2-2.7 4.9-5.7 4.9-3.1 0-5.4-1.9-5.7-4.8h1.8c.2 2 2 3 3.9 3 2.2 0 3.9-1.1 3.9-3.2 0-2.2-1.8-3-4-3h-1.3v-1.8h1c2.4 0 3.7-1.3 3.7-3 0-2-1.8-2.9-3.3-2.9-1.9 0-3.2 1.1-3.4 2.6h-1.8c.5-2.9 2.8-4.3 5.2-4.3 2.5 0 5.2 1.5 5.2 4.5 0 2.1-1.4 3.4-2.4 3.9z"/><path d="m746.6 16.8c1.4 0 2.5 1.1 2.5 2.5s-1.1 2.5-2.5 2.5-2.5-1.1-2.5-2.5 1.1-2.5 2.5-2.5z"/><path d="m1031.9 15.6v-5.1h1.7v5.1h3.1v1.7h-3.1v4.3h-1.7v-4.3h-7.5v-1.6s4.1-4.9 5.2-11h1.7c-1 6.4-4.8 10.9-4.8 10.9z"/><path d="m1045.4 16.8c1.4 0 2.5 1.1 2.5 2.5s-1.1 2.5-2.5 2.5-2.5-1.1-2.5-2.5 1.1-2.5 2.5-2.5z"/><path d="m23.7 103.8h2.2c2.9 0 5.1 1.1 5.1 5.5s-2.3 5.7-5.1 5.7h-2.2zm1.2 1.2v8.9h1c2.6 0 3.9-1.3 3.9-4.5s-1.3-4.4-3.9-4.4z"/><path d="m34.1 103.8h6.2v1.2h-5v3.8h4.8v1.2h-4.8v4h5.1v1.2h-6.3z"/><path d="m46 109.8c-1.4-.5-2.5-1.5-2.5-3.1 0-1.7 1.5-3 3.3-3 1.7 0 2.9.9 3.3 2.3l-1.1.5c-.3-.8-1-1.6-2.1-1.6-1.2 0-2.1.7-2.1 1.8 0 1 .5 1.6 1.6 1.9l1.2.4c1.8.5 2.7 1.7 2.7 3.3 0 1.5-1.3 3-3.5 3-2 0-3.2-1.3-3.7-2.5l1.2-.5c.5 1.2 1.3 1.8 2.5 1.8 1.3 0 2.3-.8 2.3-1.9 0-1-.5-1.6-1.6-2z"/><path d="m53.5 103.8h1.2v6.4l4.6-6.4h1.4l-3.3 4.6 3.6 6.6h-1.3l-3-5.5-1.9 2.7v2.9h-1.2v-11.3z"/><path d="m70.9 103.8v1.2h-3.5v10h-1.2v-10h-3.5v-1.2z"/><path d="m76.7 115.2c-2.9 0-4.1-2.6-4.1-5.8s1.2-5.8 4.1-5.8 4.1 2.6 4.1 5.8-1.1 5.8-4.1 5.8zm0-1.1c2 0 2.8-2 2.8-4.6s-.8-4.6-2.8-4.6-2.8 2-2.8 4.6c0 2.5.8 4.6 2.8 4.6z"/><path d="m84.7 110.9v4.1h-1.2v-11.2h3.2c2.5 0 3.9 1.6 3.9 3.6s-1.3 3.5-3.9 3.5zm0-5.9v4.8h2.1c1.6 0 2.5-.9 2.5-2.4 0-1.4-.8-2.4-2.5-2.4z"/><path d="m108.7 112.5h-4.5l-.7 2.6h-1.3l2.9-11.2h2.8l2.8 11.2h-1.4zm-4.2-1.2h3.9l-1.6-6.3h-.7z"/><path d="m114.2 104.9h-.2v10.1h-1.2v-11.2h2.4l3.4 10.1h.2v-10.1h1.2v11.2h-2.4z"/><path d="m122.9 103.8h2.2c2.9 0 5.1 1.1 5.1 5.5s-2.3 5.7-5.1 5.7h-2.2zm1.2 1.2v8.9h1c2.6 0 3.9-1.3 3.9-4.5s-1.3-4.4-3.9-4.4z"/><path d="m147 111.4h-1.7l-1.4-6.5h-.3v10.1h-1.3v-11.2h2.5l1.3 6.4 1.3-6.4h2.5v11.2h-1.3v-10h-.3z"/><path d="m156.1 115.2c-2.9 0-4.1-2.6-4.1-5.8s1.2-5.8 4.1-5.8 4.1 2.6 4.1 5.8-1.2 5.8-4.1 5.8zm0-1.1c2 0 2.8-2 2.8-4.6s-.8-4.6-2.8-4.6-2.8 2-2.8 4.6c0 2.5.7 4.6 2.8 4.6z"/><path d="m162.6 103.8h3.2c2.3 0 3.9.9 3.9 3 0 1-.5 1.9-1.5 2.4 1.1.5 1.7 1.6 1.7 2.7 0 2-1.5 3.2-3.9 3.2h-3.4zm1.2 1.2v3.7h2.1c1.3 0 2.4-.6 2.4-1.9s-1.1-1.8-2.4-1.8zm2.3 8.9c1.4 0 2.5-.6 2.5-2 0-1.3-1.1-1.9-2.4-1.9h-2.4v4h2.3z"/><path d="m172.6 103.8h6.7v1.2h-2.7v8.9h2.7v1.2h-6.7v-1.2h2.7v-8.9h-2.7z"/><path d="m182.8 103.8h1.2v10.1h5.6v1.2h-6.8z"/><path d="m192.8 103.8h6.2v1.2h-5v3.8h4.8v1.2h-4.8v4h5.1v1.2h-6.3z"/><path d="m217.8 112.5h-4.5l-.7 2.6h-1.3l2.9-11.2h2.8l2.8 11.2h-1.4zm-4.2-1.2h3.9l-1.6-6.3h-.7z"/><path d="m223.6 110.9v4.1h-1.2v-11.2h3.2c2.5 0 3.9 1.6 3.9 3.6s-1.3 3.5-3.9 3.5zm0-5.9v4.8h2.1c1.6 0 2.5-.9 2.5-2.4 0-1.4-.8-2.4-2.5-2.4z"/><path d="m233.5 110.9v4.1h-1.2v-11.2h3.2c2.5 0 3.9 1.6 3.9 3.6s-1.3 3.5-3.9 3.5zm0-5.9v4.8h2.1c1.6 0 2.5-.9 2.5-2.4 0-1.4-.8-2.4-2.5-2.4z"/><path d="m244.4 109.8c-1.4-.5-2.5-1.5-2.5-3.1 0-1.7 1.5-3 3.3-3 1.7 0 2.9.9 3.3 2.3l-1.1.5c-.3-.8-1-1.6-2.1-1.6-1.2 0-2.1.7-2.1 1.8 0 1 .5 1.6 1.6 1.9l1.2.4c1.8.5 2.7 1.7 2.7 3.3 0 1.5-1.3 3-3.5 3-2 0-3.2-1.3-3.7-2.5l1.2-.5c.5 1.2 1.3 1.8 2.5 1.8 1.3 0 2.3-.8 2.3-1.9 0-1-.5-1.6-1.6-2z"/><path d="m302.8 46.1h275v91.4h-275z" fill="#fff" stroke="#231f20" stroke-miterlimit="10"/><path d="m302.8 46.1h275v91.4h-275z" fill="#fff" stroke="#231f20" stroke-miterlimit="10"/><path d="m331.1 73.7-1.6 9.7h-2.8l-2.1-11.8h1.9l1.5 9.9h.3l1.6-9.9h2.4l1.6 9.9h.3l1.5-9.9h1.9l-2.1 11.8h-2.8z"/><path d="m342.4 78.1c.2 2.4 1.7 3.9 4 3.9 1.4 0 2.5-.6 3.4-1.7l1.2 1.1c-1.1 1.3-2.5 2.3-4.6 2.3-3.6 0-5.8-2.5-5.8-6.1 0-3.4 2-6.2 5.4-6.2 3.8 0 5.3 3.2 5.3 5.9v.8zm3.6-5c-2.1 0-3.2 1.5-3.5 3.5h6.9c-.1-2.1-1.4-3.5-3.4-3.5z"/><path d="m366.9 77.6c0 3.4-2.2 6.1-5.5 6.1-1.7 0-3.1-.7-4.1-2.1v1.8h-1.6v-16.8h1.8v6.9c.7-1.2 2.2-2.1 4-2.1 3.2 0 5.4 2.8 5.4 6.2zm-1.8 0c0-2.5-1.4-4.5-3.8-4.5s-3.9 2-3.9 4.5 1.5 4.5 3.9 4.5c2.3-.1 3.8-2 3.8-4.5z"/><path d="m326.5 113.9h.2l1.3-10.1h1.5l1.3 10.1h.2l1.2-10.1h1.3l-1.6 11.2h-2l-1.2-8.9-1.1 8.9h-2l-1.6-11.2h1.3z"/><path d="m335.6 103.8h6.2v1.2h-5v3.8h4.8v1.2h-4.8v4h5.1v1.2h-6.3z"/><path d="m345.1 103.8h3.2c2.3 0 3.9.9 3.9 3 0 1-.5 1.9-1.5 2.4 1.1.5 1.7 1.6 1.7 2.7 0 2-1.5 3.2-3.9 3.2h-3.4zm1.2 1.2v3.7h2.1c1.3 0 2.4-.6 2.4-1.9s-1.1-1.8-2.4-1.8zm2.3 8.9c1.4 0 2.5-.6 2.5-2 0-1.3-1.1-1.9-2.4-1.9h-2.4v4h2.3z"/><path d="m370.5 112.5h-4.5l-.7 2.6h-1.3l2.9-11.2h2.8l2.8 11.2h-1.4zm-4.1-1.2h3.9l-1.6-6.3h-.7z"/><path d="m376.1 104.9h-.2v10.1h-1.2v-11.2h2.4l3.4 10.1h.2v-10.1h1.2v11.2h-2.4z"/><path d="m384.7 103.8h2.2c2.9 0 5.1 1.1 5.1 5.5s-2.3 5.7-5.1 5.7h-2.2zm1.2 1.2v8.9h1c2.6 0 3.9-1.3 3.9-4.5s-1.3-4.4-3.9-4.4z"/><path d="m408 115.2c-2.9 0-4.1-2.6-4.1-5.8s1.2-5.8 4.1-5.8 4.1 2.6 4.1 5.8-1.2 5.8-4.1 5.8zm0-1.1c2 0 2.8-2 2.8-4.6s-.8-4.6-2.8-4.6-2.8 2-2.8 4.6c0 2.5.8 4.6 2.8 4.6z"/><path d="m415.7 104.9h-.2v10.1h-1.2v-11.2h2.4l3.4 10.1h.2v-10.1h1.2v11.2h-2.4z"/><path d="m424.8 103.8h1.2v10.1h5.6v1.2h-6.8z"/><path d="m434.4 103.8h6.7v1.2h-2.7v8.9h2.7v1.2h-6.7v-1.2h2.7v-8.9h-2.7z"/><path d="m445.5 104.9h-.2v10.1h-1.3v-11.2h2.4l3.4 10.1h.2v-10.1h1.2v11.2h-2.4z"/><path d="m454.7 103.8h6.2v1.2h-5v3.8h4.8v1.2h-4.8v4h5.1v1.2h-6.3z"/><path d="m476.5 109.8c-1.4-.5-2.5-1.5-2.5-3.1 0-1.7 1.5-3 3.3-3 1.7 0 2.9.9 3.3 2.3l-1.1.5c-.3-.8-1-1.6-2.1-1.6-1.2 0-2.1.7-2.1 1.8 0 1 .5 1.6 1.6 1.9l1.2.4c1.8.5 2.7 1.7 2.7 3.3 0 1.5-1.3 3-3.5 3-2 0-3.2-1.3-3.7-2.5l1.2-.5c.5 1.2 1.3 1.8 2.5 1.8 1.3 0 2.3-.8 2.3-1.9 0-1-.5-1.6-1.6-2z"/><path d="m484.4 103.8h6.2v1.2h-5v3.8h4.8v1.2h-4.8v4h5.1v1.2h-6.3z"/><path d="m497.3 110.9h-2.2v4.1h-1.2v-11.2h3.3c2.3 0 3.8 1.4 3.8 3.6 0 1.7-1 2.8-2.4 3.3l2.5 4.4h-1.4zm-2.1-5.9v4.8h2.2c1.3 0 2.4-.8 2.4-2.4s-1.1-2.4-2.4-2.4z"/><path d="m510.3 103.8h1.3l-3.2 11.2h-2.4l-3.2-11.2h1.3l2.9 10.1h.5z"/><path d="m513.8 103.8h6.7v1.2h-2.7v8.9h2.7v1.2h-6.7v-1.2h2.7v-8.9h-2.7z"/><path d="m530.9 112.3c-.5 1.7-1.6 2.9-3.6 2.9-2.9 0-4.3-2.6-4.3-5.8s1.4-5.8 4.3-5.8c2 0 3.2 1.3 3.6 3l-1.2.4c-.3-1.2-1.2-2.2-2.4-2.2-2 0-3 2-3 4.6s1.2 4.6 3 4.6c1.3 0 2.1-.9 2.4-2.2z"/><path d="m534 103.8h6.2v1.2h-5v3.8h4.8v1.2h-4.8v4h5.1v1.2h-6.3z"/><path d="m545.9 109.8c-1.4-.5-2.5-1.5-2.5-3.1 0-1.7 1.5-3 3.3-3 1.7 0 2.9.9 3.3 2.3l-1.1.5c-.3-.8-1-1.6-2.1-1.6-1.2 0-2.1.7-2.1 1.8 0 1 .5 1.6 1.6 1.9l1.2.4c1.8.5 2.7 1.7 2.7 3.3 0 1.5-1.3 3-3.5 3-2 0-3.2-1.3-3.7-2.5l1.2-.5c.5 1.2 1.3 1.8 2.5 1.8 1.3 0 2.3-.8 2.3-1.9 0-1-.5-1.6-1.6-2z"/><path d="m601.6 46.1h275v91.4h-275z" fill="#fff" stroke="#231f20" stroke-miterlimit="10"/><path d="m622.6 75.5v-.3c0-2 2-3.8 4.6-3.8s4.5 1.6 4.5 4.3v4.8c0 1.2.3 1.5 1.3 1.5h.8v1.4s-.7.2-1.4.2c-1.3 0-2-.8-2.2-1.8-.8 1.1-2.2 2-4 2-2.6 0-4.1-1.5-4.1-3.4 0-2.1 1.7-3.4 4.4-3.7l3.4-.4v-.5c0-1.7-1.1-2.6-2.7-2.6s-2.7.8-2.7 2.5h-1.9zm3.5 6.5c2.2 0 3.7-1.4 3.7-3.5v-1l-3.6.5c-1.6.2-2.4 1-2.4 2.1.1 1.2.8 1.9 2.3 1.9z"/><path d="m639.3 73.4c.8-1.2 2.2-2 3.7-2 3 0 4.7 1.9 4.7 5.2v6.8h-1.8v-7c0-2.2-1.1-3.4-3-3.4-2.4 0-3.6 1.8-3.6 4.6v5.8h-1.8v-11.7h1.7v1.7z"/><path d="m652.4 75.5v-.3c0-2 2-3.8 4.6-3.8s4.5 1.6 4.5 4.3v4.8c0 1.2.3 1.5 1.3 1.5h.8v1.4s-.7.2-1.4.2c-1.3 0-2-.8-2.2-1.8-.8 1.1-2.2 2-4 2-2.6 0-4.1-1.5-4.1-3.4 0-2.1 1.7-3.4 4.4-3.7l3.4-.4v-.5c0-1.7-1.1-2.6-2.7-2.6s-2.7.8-2.7 2.5h-1.9zm3.5 6.5c2.2 0 3.7-1.4 3.7-3.5v-1l-3.6.5c-1.6.2-2.4 1-2.4 2.1 0 1.2.8 1.9 2.3 1.9z"/><path d="m673.3 66.6v15.2h4.7v1.6h-11.3v-1.6h4.8v-13.6h-4.8v-1.6z"/><path d="m682.4 88.1v-1.8h1.6c1 0 1.3-.3 1.7-1.1l.6-1.6-4.9-11.9h2l3.9 9.8 3.8-9.8h2l-5.6 14.1c-.7 1.7-1.6 2.4-3.2 2.4-1 0-1.9-.1-1.9-.1z"/><path d="m700.7 78.2c-2.2-.3-3.6-1.6-3.6-3.4 0-2.2 2.2-3.4 4.5-3.4 1.8 0 3.8.8 4.9 2.5l-1.4 1c-.9-1.2-2.2-1.9-3.6-1.9-1.5 0-2.6.7-2.6 1.7 0 .9.7 1.5 2 1.7l2.3.4c2.2.4 3.6 1.5 3.6 3.3 0 2.1-2.2 3.6-4.8 3.6-2.1 0-4-.9-5.1-2.3l1.4-1.2c.8 1.2 2.1 1.9 3.7 1.9 1.7 0 3.1-.6 3.1-1.8 0-.9-.8-1.5-2.1-1.7z"/><path d="m718.2 71.7v10.1h4.5v1.6h-10.8v-1.6h4.5v-8.5h-4.6v-1.6zm-1.1-6c1.1 0 2 .9 2 2s-.9 2-2 2-2-.9-2-2 1-2 2-2z"/><path d="m730.5 78.2c-2.2-.3-3.6-1.6-3.6-3.4 0-2.2 2.2-3.4 4.5-3.4 1.8 0 3.8.8 4.9 2.5l-1.4 1c-.9-1.2-2.2-1.9-3.6-1.9-1.5 0-2.6.7-2.6 1.7 0 .9.7 1.5 2 1.7l2.3.4c2.2.4 3.6 1.5 3.6 3.3 0 2.1-2.2 3.6-4.8 3.6-2.1 0-4-.9-5.1-2.3l1.4-1.2c.8 1.2 2.1 1.9 3.7 1.9 1.7 0 3.1-.6 3.1-1.8 0-.9-.8-1.5-2.1-1.7z"/><path d="m621.7 103.8h2.2c2.9 0 5.1 1.1 5.1 5.5s-2.3 5.7-5.1 5.7h-2.2zm1.2 1.2v8.9h1c2.6 0 3.9-1.3 3.9-4.5s-1.3-4.4-3.9-4.4z"/><path d="m637.3 112.5h-4.5l-.7 2.6h-1.3l2.9-11.2h2.8l2.8 11.2h-1.4zm-4.2-1.2h3.9l-1.6-6.3h-.7z"/><path d="m649.1 103.8v1.2h-3.5v10h-1.2v-10h-3.5v-1.2z"/><path d="m657.1 112.5h-4.5l-.6 2.5h-1.3l2.9-11.2h2.8l2.8 11.2h-1.4zm-4.2-1.2h3.9l-1.6-6.3h-.7z"/><path d="m677 112.5h-4.5l-.7 2.6h-1.3l2.9-11.2h2.8l2.8 11.1h-1.4zm-4.2-1.2h3.9l-1.6-6.3h-.7z"/><path d="m682.5 104.9h-.2v10.1h-1.3v-11.2h2.4l3.4 10.1h.2v-10.1h1.2v11.2h-2.4z"/><path d="m696.8 112.5h-4.5l-.7 2.6h-1.3l2.9-11.2h2.8l2.8 11.2h-1.4zm-4.2-1.2h3.9l-1.6-6.3h-.7z"/><path d="m701.4 103.8h1.2v10.1h5.6v1.2h-6.8z"/><path d="m714.4 109.7 2.7-5.8h1.3l-3.5 7.3v3.9h-1.2v-3.9l-3.5-7.3h1.3z"/><path d="m723.4 109.8c-1.4-.5-2.5-1.5-2.5-3.1 0-1.7 1.5-3 3.3-3 1.7 0 2.9.9 3.3 2.3l-1.1.5c-.3-.8-1-1.6-2.1-1.6-1.2 0-2.1.7-2.1 1.8 0 1 .5 1.6 1.6 1.9l1.2.4c1.8.5 2.7 1.7 2.7 3.3 0 1.5-1.3 3-3.5 3-2 0-3.2-1.3-3.7-2.5l1.2-.5c.5 1.2 1.3 1.8 2.5 1.8 1.3 0 2.3-.8 2.3-1.9 0-1-.5-1.6-1.6-2z"/><path d="m730.9 103.8h6.7v1.2h-2.7v8.9h2.7v1.2h-6.7v-1.2h2.7v-8.9h-2.7z"/><path d="m743.2 109.8c-1.4-.5-2.5-1.5-2.5-3.1 0-1.7 1.5-3 3.3-3 1.7 0 2.9.9 3.3 2.3l-1.1.5c-.3-.8-1-1.6-2.1-1.6-1.2 0-2.1.7-2.1 1.8 0 1 .5 1.6 1.6 1.9l1.2.4c1.8.5 2.7 1.7 2.7 3.3 0 1.5-1.3 3-3.5 3-2 0-3.2-1.3-3.7-2.5l1.2-.5c.5 1.2 1.3 1.8 2.5 1.8 1.3 0 2.3-.8 2.3-1.9 0-1-.5-1.6-1.6-2z"/><path d="m900.4 46.1h275v91.4h-275z" fill="#fff" stroke="#231f20" stroke-miterlimit="10"/><path d="m922.3 84.5c.4.8 1.5 2.2 3.6 2.2 2.6 0 3.9-1.7 3.9-4.1v-1.5c-.9 1.3-2.3 2-3.8 2-3 0-5.3-2.5-5.3-5.9s2.4-5.9 5.3-5.9c1.6 0 3.2.9 3.9 2v-1.8h1.7v10.8c0 3.6-2.2 5.9-5.7 5.9-3 0-4.4-1.9-4.9-2.6zm.2-7.2c0 2.5 1.6 4.2 3.7 4.2s3.7-1.7 3.7-4.2-1.6-4.2-3.7-4.2c-2.2 0-3.7 1.7-3.7 4.2z"/><path d="m936.3 75.5v-.3c0-2 2-3.8 4.6-3.8s4.5 1.6 4.5 4.3v4.8c0 1.2.3 1.5 1.3 1.5h.8v1.4s-.7.2-1.4.2c-1.3 0-2-.8-2.2-1.8-.8 1.1-2.2 2-4 2-2.6 0-4.1-1.5-4.1-3.4 0-2.1 1.7-3.4 4.4-3.7l3.4-.4v-.5c0-1.7-1.1-2.6-2.7-2.6s-2.7.8-2.7 2.5h-1.9zm3.5 6.5c2.2 0 3.7-1.4 3.7-3.5v-1l-3.6.5c-1.6.2-2.4 1-2.4 2.1 0 1.2.8 1.9 2.3 1.9z"/><path d="m951.8 73.1c.3-1 1.3-1.7 2.4-1.7 1.2 0 2 .7 2.3 1.9.5-1.2 1.6-1.9 2.9-1.9 2.1 0 3 1.6 3 4v8h-1.8v-7.9c0-1.7-.7-2.4-1.7-2.4-1.2 0-1.8 1.2-1.8 3v7.4h-1.7v-7.8c0-1.7-.6-2.6-1.6-2.6-1.3 0-1.9 1.2-1.9 3v7.4h-1.8v-11.8h1.7z"/><path d="m967.5 78.1c.2 2.4 1.7 3.9 4 3.9 1.4 0 2.5-.6 3.4-1.7l1.2 1.1c-1.1 1.3-2.5 2.3-4.6 2.3-3.6 0-5.8-2.5-5.8-6.1 0-3.4 2-6.2 5.4-6.2 3.8 0 5.3 3.2 5.3 5.9v.8zm3.6-5c-2.1 0-3.2 1.5-3.5 3.5h6.9c-.2-2.1-1.5-3.5-3.4-3.5z"/><path d="m1000.4 71.4c1.8 0 3.2.9 4 2.1v-6.9h1.8v16.8h-1.7v-1.8c-1 1.4-2.4 2.1-4 2.1-3.3 0-5.5-2.8-5.5-6.1s2.1-6.2 5.4-6.2zm.1 10.6c2.4 0 3.9-2 3.9-4.5s-1.5-4.5-3.9-4.5-3.8 2-3.8 4.5c0 2.6 1.5 4.5 3.8 4.5z"/><path d="m1012.1 78.1c.2 2.4 1.7 3.9 4 3.9 1.4 0 2.5-.6 3.4-1.7l1.2 1.1c-1.1 1.3-2.5 2.3-4.6 2.3-3.6 0-5.8-2.5-5.8-6.1 0-3.4 2-6.2 5.4-6.2 3.8 0 5.3 3.2 5.3 5.9v.8zm3.6-5c-2.1 0-3.2 1.5-3.5 3.5h6.9c-.1-2.1-1.4-3.5-3.4-3.5z"/><path d="m1032 83.4h-2.8l-4.5-11.8h2l3.7 9.8h.4l3.7-9.8h2z"/><path d="m924.8 111.4h-1.7l-1.4-6.5h-.3v10.1h-1.3v-11.2h2.5l1.3 6.4 1.3-6.4h2.5v11.2h-1.3v-10h-.3z"/><path d="m933.9 115.2c-2.9 0-4.1-2.6-4.1-5.8s1.2-5.8 4.1-5.8 4.1 2.6 4.1 5.8-1.2 5.8-4.1 5.8zm0-1.1c2 0 2.8-2 2.8-4.6s-.8-4.6-2.8-4.6-2.8 2-2.8 4.6c0 2.5.7 4.6 2.8 4.6z"/><path d="m940.4 103.8h3.2c2.3 0 3.9.9 3.9 3 0 1-.5 1.9-1.5 2.4 1.1.5 1.7 1.6 1.7 2.7 0 2-1.5 3.2-3.9 3.2h-3.4zm1.2 1.2v3.7h2.1c1.3 0 2.4-.6 2.4-1.9s-1.1-1.8-2.4-1.8zm2.3 8.9c1.4 0 2.5-.6 2.5-2 0-1.3-1.1-1.9-2.4-1.9h-2.4v4h2.3z"/><path d="m950.4 103.8h6.7v1.2h-2.7v8.9h2.7v1.2h-6.7v-1.2h2.7v-8.9h-2.7z"/><path d="m960.6 103.8h1.2v10.1h5.6v1.2h-6.8z"/><path d="m970.6 103.8h6.2v1.2h-5v3.8h4.8v1.2h-4.8v4h5.1v1.2h-6.3z"/><path d="m983.2 112.3c1 0 1.6.9 1.6 2 0 1.4-.8 2.9-2.8 3.9l-.5-.9c1.1-.5 1.9-1.3 2.1-2.4-.2.1-.6.1-.6.1-.6 0-1.3-.5-1.3-1.3s.7-1.4 1.5-1.4z"/><path d="m1001.4 110.9v4.1h-1.2v-11.2h3.2c2.5 0 3.9 1.6 3.9 3.6s-1.3 3.5-3.9 3.5zm0-5.9v4.8h2.1c1.6 0 2.5-.9 2.5-2.4 0-1.4-.8-2.4-2.5-2.4z"/><path d="m1017.1 112.3c-.5 1.7-1.6 2.9-3.6 2.9-2.9 0-4.3-2.6-4.3-5.8s1.4-5.8 4.3-5.8c2 0 3.2 1.3 3.6 3l-1.2.4c-.3-1.2-1.2-2.2-2.4-2.2-2 0-3 2-3 4.6s1.2 4.6 3 4.6c1.3 0 2.1-.9 2.4-2.2z"/><path d="m1022.8 112.3c1 0 1.6.9 1.6 2 0 1.4-.8 2.9-2.8 3.9l-.5-.9c1.1-.5 1.9-1.3 2.1-2.4-.2.1-.6.1-.6.1-.6 0-1.3-.5-1.3-1.3.1-.8.7-1.4 1.5-1.4z"/><path d="m1045.2 112.5h-4.5l-.7 2.6h-1.3l2.9-11.2h2.8l2.8 11.2h-1.4zm-4.2-1.2h3.9l-1.6-6.3h-.7z"/><path d="m1050.7 104.9h-.2v10.1h-1.2v-11.2h2.4l3.4 10.1h.2v-10.1h1.2v11.2h-2.4z"/><path d="m1059.4 103.8h2.2c2.9 0 5.1 1.1 5.1 5.5s-2.3 5.7-5.1 5.7h-2.2zm1.2 1.2v8.9h1c2.6 0 3.9-1.3 3.9-4.5s-1.3-4.4-3.9-4.4z"/><path d="m1086.5 112.3c-.5 1.7-1.6 2.9-3.6 2.9-2.9 0-4.3-2.6-4.3-5.8s1.4-5.8 4.3-5.8c2 0 3.2 1.3 3.6 3l-1.2.4c-.3-1.2-1.2-2.2-2.4-2.2-2 0-3 2-3 4.6s1.2 4.6 3 4.6c1.3 0 2.1-.9 2.4-2.2z"/><path d="m1092.6 115.2c-2.9 0-4.1-2.6-4.1-5.8s1.2-5.8 4.1-5.8 4.1 2.6 4.1 5.8-1.2 5.8-4.1 5.8zm0-1.1c2 0 2.8-2 2.8-4.6s-.8-4.6-2.8-4.6-2.8 2-2.8 4.6c0 2.5.7 4.6 2.8 4.6z"/><path d="m1100.3 104.9h-.2v10.1h-1.2v-11.2h2.4l3.4 10.1h.2v-10.1h1.2v11.2h-2.4z"/><path d="m1111.5 109.8c-1.4-.5-2.5-1.5-2.5-3.1 0-1.7 1.5-3 3.3-3 1.7 0 2.9.9 3.3 2.3l-1.1.5c-.3-.8-1-1.6-2.1-1.6-1.2 0-2.1.7-2.1 1.8 0 1 .5 1.6 1.6 1.9l1.2.4c1.8.5 2.7 1.7 2.7 3.3 0 1.5-1.3 3-3.5 3-2 0-3.2-1.3-3.7-2.5l1.2-.5c.5 1.2 1.3 1.8 2.5 1.8 1.3 0 2.3-.8 2.3-1.9 0-1-.5-1.6-1.6-2z"/><path d="m1122.3 115.2c-2.9 0-4.1-2.6-4.1-5.8s1.2-5.8 4.1-5.8 4.1 2.6 4.1 5.8-1.1 5.8-4.1 5.8zm0-1.1c2 0 2.8-2 2.8-4.6s-.8-4.6-2.8-4.6-2.8 2-2.8 4.6c.1 2.5.8 4.6 2.8 4.6z"/><path d="m1129.2 103.8h1.2v10.1h5.6v1.2h-6.8z"/><path d="m1139.2 103.8h6.2v1.2h-5v3.8h4.8v1.2h-4.8v4h5.1v1.2h-6.3z"/></svg>