<svg viewBox="0 0 527 170" xmlns="http://www.w3.org/2000/svg" xmlns:xlink="http://www.w3.org/1999/xlink"><clipPath id="a"><circle cx="43.5" cy="85.5" r="25.5"/></clipPath><clipPath id="b"><circle cx="436.5" cy="46.5" r="25.5"/></clipPath><path d="m0 41.75h298v87h-298z" fill="#ddd"/><circle cx="43.5" cy="85.5" fill="#bababa" r="25.5"/><g clip-path="url(#a)" fill="#727272"><circle cx="43.5" cy="111.5" r="22.5"/><circle cx="43.5" cy="80.5" r="10.5"/></g><g fill="#bababa"><path d="m85 62h135v10h-135z"/><path d="m85 80.25h97v10h-97z"/><path d="m85 99h126v10h-126z"/></g><path d="m346 0h181v169.75h-181z" fill="#ddd"/><circle cx="436.5" cy="46.5" fill="#bababa" r="25.5"/><g clip-path="url(#b)" fill="#727272"><circle cx="436.5" cy="72.5" r="22.5"/><circle cx="436.5" cy="41.5" r="10.5"/></g><path d="m369 97h135v10h-135z" fill="#bababa"/><path d="m388 115.25h97v10h-97z" fill="#bababa"/><path d="m373.5 134h126v10h-126z" fill="#bababa"/></svg>