<?xml version="1.0" encoding="utf-8"?>
<!-- Generator: Adobe Illustrator 26.2.1, SVG Export Plug-In . SVG Version: 6.00 Build 0)  -->
<svg version="1.1" id="Layer_1" xmlns="http://www.w3.org/2000/svg" xmlns:xlink="http://www.w3.org/1999/xlink" x="0px" y="0px"
	 viewBox="0 0 200 200" style="enable-background:new 0 0 200 200;" xml:space="preserve">
<style type="text/css">
	.st0{fill:none;stroke:#000000;stroke-width:2;stroke-miterlimit:10;}
</style>
<rect x="-0.5" y="-0.5" width="1" height="1"/>
<rect x="-0.5" y="49.5" width="1" height="1"/>
<rect x="-0.5" y="99.5" width="1" height="1"/>
<rect x="-0.5" y="199.5" width="1" height="1"/>
<rect x="49.5" width="1" height="1"/>
<rect x="49.5" y="49.5" width="1" height="1"/>
<rect x="49.5" y="99.5" width="1" height="1"/>
<rect x="49.5" y="149.5" width="1" height="1"/>
<rect x="49.5" y="199.5" width="1" height="1"/>
<rect x="99.5" width="1" height="1"/>
<rect x="99.5" y="49.5" width="1" height="1"/>
<rect x="99.5" y="99.5" width="1" height="1"/>
<rect x="99.5" y="149.5" width="1" height="1"/>
<rect x="99.5" y="199.5" width="1" height="1"/>
<rect x="149.5" width="1" height="1"/>
<rect x="149.5" y="49.5" width="1" height="1"/>
<rect x="149.5" y="99.5" width="1" height="1"/>
<rect x="149.5" y="149.5" width="1" height="1"/>
<rect x="149.5" y="199.5" width="1" height="1"/>
<rect x="199.5" width="1" height="1"/>
<rect x="199.5" y="49.5" width="1" height="1"/>
<rect x="199.5" y="99.5" width="1" height="1"/>
<rect x="199.5" y="149.5" width="1" height="1"/>
<rect x="199.5" y="199.5" width="1" height="1"/>
<rect y="149.5" width="1" height="1"/>
<path class="st0" d="M0,200C110.1,200,92.7,0,200.5,1"/>
</svg>
